<svg xmlns="http://www.w3.org/2000/svg" xmlns:xlink="http://www.w3.org/1999/xlink" version="1.1" x="0px" y="0px" viewBox="0 0 32 40" enable-background="new 0 0 32 32" xml:space="preserve">
  <path fill="#1fcecb" d="M29.7,11l-8.5,0c-0.1,0-0.3-0.1-0.3-0.3V2.3c0-1-0.8-1.8-1.8-1.8h-6.4c-1,0-1.8,0.8-1.8,1.8v8.5c0,0.1-0.1,0.3-0.3,0.3H2.3  c-1,0-1.8,0.8-1.8,1.8v6.4c0,1,0.8,1.8,1.8,1.8l8.5,0c0.1,0,0.3,0.1,0.3,0.3v8.5c0,1,0.8,1.8,1.8,1.8h6.4c1,0,1.8-0.8,1.8-1.8v-8.5  c0-0.1,0.1-0.3,0.3-0.3l8.5,0c1,0,1.8-0.8,1.8-1.8v-6.4C31.5,11.8,30.7,11,29.7,11z M6.3,17.1c0.3,0.3,0.3,0.8,0,1.1  c-0.1,0.1-0.3,0.2-0.5,0.2c-0.2,0-0.4-0.1-0.5-0.2l-1.7-1.7c-0.3-0.3-0.3-0.8,0-1.1l1.7-1.7c0.3-0.3,0.8-0.3,1.1,0  c0.3,0.3,0.3,0.8,0,1.1L5.2,16L6.3,17.1z M18.2,26.8l-1.7,1.7c-0.1,0.1-0.3,0.2-0.5,0.2c-0.2,0-0.4-0.1-0.5-0.2l-1.7-1.7  c-0.3-0.3-0.3-0.8,0-1.1c0.3-0.3,0.8-0.3,1.1,0l1.1,1.1l1.1-1.1c0.3-0.3,0.8-0.3,1.1,0C18.5,26,18.5,26.5,18.2,26.8z M18.2,6.3  c-0.3,0.3-0.8,0.3-1.1,0L16,5.2l-1.1,1.1c-0.1,0.1-0.3,0.2-0.5,0.2c-0.2,0-0.4-0.1-0.5-0.2c-0.3-0.3-0.3-0.8,0-1.1l1.7-1.7  c0.3-0.3,0.8-0.3,1.1,0l1.7,1.7C18.5,5.5,18.5,6,18.2,6.3z M28.4,16.5l-1.7,1.7c-0.1,0.1-0.3,0.2-0.5,0.2s-0.4-0.1-0.5-0.2  c-0.3-0.3-0.3-0.8,0-1.1l1.1-1.1l-1.1-1.1c-0.3-0.3-0.3-0.8,0-1.1c0.3-0.3,0.8-0.3,1.1,0l1.7,1.7C28.7,15.8,28.7,16.2,28.4,16.5z"/>
  <text x="0" y="47" fill="#000000" font-size="5px" font-weight="bold" font-family="'Helvetica Neue', Helvetica, Arial-Unicode, Arial, Sans-serif">Created by Creative Stall</text>
  <text x="0" y="52" fill="#000000" font-size="5px" font-weight="bold" font-family="'Helvetica Neue', Helvetica, Arial-Unicode, Arial, Sans-serif">from the Noun Project</text>
</svg>
